<svg width="24" height="24" viewBox="0 0 24 24" fill="none" xmlns="http://www.w3.org/2000/svg">
    <mask id="mask0_12691_19362" style="mask-type:luminance" maskUnits="userSpaceOnUse" x="0" y="0" width="24" height="24">
        <path d="M24 0H0V24H24V0Z" fill="white"/>
    </mask>
    <g mask="url(#mask0_12691_19362)">
        <path d="M12.0016 16.7997C17.3034 16.7997 21.6016 18.4114 21.6016 20.3997V13.1996C21.6016 11.2114 17.3034 9.59961 12.0016 9.59961H9.60156V16.7997H12.0016Z" fill="url(#paint0_linear_12691_19362)"/>
        <path d="M21.6004 13.1992C21.6004 15.1875 17.3024 16.7992 12.0004 16.7992C8.7669 16.7992 5.90679 16.1997 4.16731 15.2809C3.22539 14.8633 2.40039 15.4961 2.40039 16.3539V20.3992C2.40039 22.3875 6.69846 23.9992 12.0004 23.9992C17.3024 23.9992 21.6004 22.3875 21.6004 20.3992V13.1992Z" fill="url(#paint1_radial_12691_19362)"/>
        <path d="M21.6004 13.1992C21.6004 15.1875 17.3024 16.7992 12.0004 16.7992C8.7669 16.7992 5.90679 16.1997 4.16731 15.2809C3.22539 14.8633 2.40039 15.4961 2.40039 16.3539V20.3992C2.40039 22.3875 6.69846 23.9992 12.0004 23.9992C17.3024 23.9992 21.6004 22.3875 21.6004 20.3992V13.1992Z" fill="url(#paint2_radial_12691_19362)"/>
        <path d="M12.0004 0C17.3023 0 21.6004 1.61177 21.6004 3.6V7.67812C21.6004 8.23593 21.0191 9.21563 19.832 8.71743C18.0923 7.79913 15.2329 7.2 12.0004 7.2C6.69846 7.2 2.40039 8.81177 2.40039 10.8V3.6C2.40039 1.61177 6.69846 0 12.0004 0Z" fill="url(#paint3_linear_12691_19362)"/>
        <path d="M12.0004 7.19961C6.69846 7.19961 2.40039 5.58784 2.40039 3.59961V10.7996C2.40039 12.7878 6.69846 14.3997 12.0004 14.3997H12.6004C13.5945 14.3997 14.4004 13.5937 14.4004 12.5996V8.99961C14.4004 8.0055 13.5945 7.19961 12.6004 7.19961H12.0004Z" fill="url(#paint4_radial_12691_19362)"/>
        <path d="M12.0004 7.19961C6.69846 7.19961 2.40039 5.58784 2.40039 3.59961V10.7996C2.40039 12.7878 6.69846 14.3997 12.0004 14.3997H12.6004C13.5945 14.3997 14.4004 13.5937 14.4004 12.5996V8.99961C14.4004 8.0055 13.5945 7.19961 12.6004 7.19961H12.0004Z" fill="url(#paint5_radial_12691_19362)"/>
    </g>
    <defs>
        <linearGradient id="paint0_linear_12691_19362" x1="18.0015" y1="9.59961" x2="7.96916" y2="17.9094" gradientUnits="userSpaceOnUse">
            <stop stop-color="#0094F0"/>
            <stop offset="0.243047" stop-color="#0078D4"/>
            <stop offset="0.584404" stop-color="#2052CB"/>
            <stop offset="0.830639" stop-color="#312A9A"/>
        </linearGradient>
        <radialGradient id="paint1_radial_12691_19362" cx="0" cy="0" r="1" gradientUnits="userSpaceOnUse" gradientTransform="translate(16.8004 14.7743) rotate(143.591) scale(14.9105 26.5076)">
            <stop stop-color="#3BD5FF"/>
            <stop offset="1" stop-color="#0078D4"/>
        </radialGradient>
        <radialGradient id="paint2_radial_12691_19362" cx="0" cy="0" r="1" gradientUnits="userSpaceOnUse" gradientTransform="translate(19.8004 13.7992) rotate(146.31) scale(12.98 21.898)">
            <stop stop-color="#DECBFF" stop-opacity="0.9"/>
            <stop offset="1" stop-color="#DECBFF" stop-opacity="0"/>
        </radialGradient>
        <linearGradient id="paint3_linear_12691_19362" x1="16.2004" y1="0.600001" x2="4.83515" y2="12.9745" gradientUnits="userSpaceOnUse">
            <stop stop-color="#0FAFFF"/>
            <stop offset="0.162714" stop-color="#0094F0"/>
            <stop offset="0.563871" stop-color="#2052CB"/>
            <stop offset="0.764283" stop-color="#312A9A"/>
        </linearGradient>
        <radialGradient id="paint4_radial_12691_19362" cx="0" cy="0" r="1" gradientUnits="userSpaceOnUse" gradientTransform="translate(11.8349 6.07409) rotate(137.53) scale(12.3303 19.2059)">
            <stop stop-color="#3BD5FF"/>
            <stop offset="1" stop-color="#0078D4"/>
        </radialGradient>
        <radialGradient id="paint5_radial_12691_19362" cx="0" cy="0" r="1" gradientUnits="userSpaceOnUse" gradientTransform="translate(13.8004 5.39961) rotate(149.036) scale(10.4957 16.8003)">
            <stop stop-color="#DECBFF" stop-opacity="0.9"/>
            <stop offset="1" stop-color="#D1D1FF" stop-opacity="0"/>
        </radialGradient>
    </defs>
</svg>
